<svg width="149" height="24" viewBox="0 0 149 24" fill="none" xmlns="http://www.w3.org/2000/svg">
<path fill-rule="evenodd" clip-rule="evenodd" d="M43.8858 0.920041L46.0887 0.0176053C46.1238 0.00307112 46.1619 -0.00259873 46.1996 0.00109827C46.2374 0.00479527 46.2736 0.0177457 46.3052 0.0387963C46.3367 0.0598469 46.3625 0.0883446 46.3803 0.121752C46.3981 0.155159 46.4074 0.192439 46.4072 0.230273V18.2482C46.4072 18.3094 46.3829 18.3682 46.3394 18.4114C46.296 18.4547 46.2371 18.4791 46.1757 18.4791H43.8297C43.7994 18.4791 43.7694 18.4731 43.7413 18.4615C43.7133 18.4498 43.6879 18.4328 43.6665 18.4114C43.6451 18.3899 43.6282 18.3644 43.6167 18.3364C43.6052 18.3084 43.5994 18.2785 43.5996 18.2482V1.34677C43.5994 1.25534 43.6266 1.16592 43.6775 1.08992C43.7285 1.01392 43.801 0.95478 43.8858 0.920041ZM28.9988 12.0025C28.9988 8.13955 31.9355 5.1846 35.8614 5.1846C38.3253 5.1846 40.4735 6.42003 41.5524 8.33123C41.5817 8.38396 41.5888 8.44608 41.5722 8.50401C41.5556 8.56194 41.5168 8.61099 41.4641 8.64044L39.452 9.80591C39.426 9.82128 39.3973 9.83137 39.3674 9.8356C39.3375 9.83984 39.3071 9.83813 39.2779 9.83059C39.2487 9.82305 39.2212 9.80981 39.1972 9.79165C39.1731 9.77349 39.1529 9.75075 39.1377 9.72476C38.5245 8.62365 37.3066 7.93248 35.8362 7.93248C33.5477 7.93248 31.8064 9.6688 31.8064 12.0025C31.8064 14.3363 33.5477 16.0726 35.8362 16.0726C37.3094 16.0726 38.5273 15.3548 39.184 14.2705C39.2167 14.2194 39.2679 14.1828 39.327 14.1685C39.3861 14.1541 39.4485 14.1631 39.5011 14.1936L41.5118 15.3367C41.5382 15.3515 41.5614 15.3714 41.58 15.3952C41.5987 15.419 41.6125 15.4462 41.6205 15.4753C41.6286 15.5045 41.6309 15.5349 41.6271 15.5649C41.6234 15.5948 41.6137 15.6238 41.5988 15.6501C40.4763 17.5836 38.3253 18.8205 35.8614 18.8205C31.9355 18.8205 28.9988 15.8389 28.9988 12.0025ZM62.7592 18.2482V5.75124C62.7592 5.69026 62.735 5.63175 62.6919 5.5885C62.6488 5.54525 62.5903 5.52076 62.5291 5.52039H60.1831C60.1217 5.52039 60.0628 5.54471 60.0194 5.58801C59.976 5.6313 59.9516 5.69002 59.9516 5.75124V7.36164C58.9638 6.01428 57.4302 5.1846 55.4027 5.1846C51.8668 5.1846 48.9287 8.13955 48.9287 12.0025C48.9287 15.8389 51.8668 18.8205 55.4027 18.8205C57.426 18.8205 58.9694 17.9908 59.9516 16.6169V18.2482C59.9516 18.3095 59.976 18.3682 60.0194 18.4115C60.0628 18.4548 60.1217 18.4791 60.1831 18.4791H62.5291C62.5903 18.4787 62.6488 18.4542 62.6919 18.411C62.735 18.3677 62.7592 18.3092 62.7592 18.2482ZM55.8461 7.85413C58.1851 7.85413 59.953 9.59045 59.953 12.0025H59.9516C59.9516 14.4132 58.178 16.1495 55.8447 16.1495C53.5113 16.1495 51.7377 14.4146 51.7377 12.0025C51.7377 9.59045 53.5071 7.85413 55.8461 7.85413ZM72.6159 5.52317V8.07797C72.6163 8.10846 72.6106 8.13871 72.5991 8.16697C72.5876 8.19522 72.5706 8.22091 72.549 8.24253C72.5275 8.26416 72.5018 8.28128 72.4735 8.2929C72.4453 8.30453 72.415 8.31042 72.3844 8.31023C70.594 8.26546 68.6128 9.16789 68.6128 11.948V18.244C68.6128 18.3052 68.5884 18.364 68.545 18.4073C68.5016 18.4506 68.4427 18.4749 68.3813 18.4749H66.0353C66.005 18.4749 65.9749 18.4689 65.9469 18.4573C65.9189 18.4457 65.8935 18.4286 65.8721 18.4072C65.8507 18.3857 65.8338 18.3603 65.8223 18.3323C65.8108 18.3043 65.805 18.2743 65.8052 18.244V5.75123C65.805 5.72098 65.8108 5.69099 65.8223 5.66299C65.8338 5.63499 65.8507 5.60953 65.8721 5.58807C65.8935 5.56662 65.9189 5.54959 65.9469 5.53797C65.9749 5.52635 66.005 5.52037 66.0353 5.52037H68.3841C68.4455 5.52037 68.5044 5.54469 68.5478 5.58799C68.5912 5.63128 68.6156 5.69 68.6156 5.75123V7.69881C69.3579 6.01986 70.8297 5.35248 72.383 5.29231C72.4136 5.29194 72.4439 5.29765 72.4722 5.3091C72.5006 5.32055 72.5263 5.33752 72.548 5.35901C72.5697 5.38051 72.5869 5.40609 72.5985 5.43428C72.6102 5.46246 72.6161 5.49268 72.6159 5.52317ZM75.1707 0.554747C74.8357 0.879575 74.641 1.32188 74.6279 1.78764C74.6212 2.02675 74.6626 2.26478 74.7498 2.48765C74.8369 2.71052 74.968 2.91371 75.1352 3.08521C75.3024 3.2567 75.5025 3.39302 75.7234 3.48611C75.9444 3.57919 76.1819 3.62715 76.4218 3.62715C76.6617 3.62715 76.8991 3.57919 77.1201 3.48611C77.3411 3.39302 77.5411 3.2567 77.7084 3.08521C77.8756 2.91371 78.0067 2.71052 78.0938 2.48765C78.1809 2.26478 78.2224 2.02675 78.2157 1.78764C78.2026 1.32188 78.0079 0.879575 77.6729 0.554747C77.3379 0.229919 76.889 0.0481873 76.4218 0.0481873C75.9545 0.0481873 75.5057 0.229919 75.1707 0.554747ZM77.5941 5.5163H75.2481C75.2174 5.51648 75.1871 5.52273 75.1589 5.53467C75.1307 5.54662 75.1052 5.56403 75.0838 5.5859C75.0624 5.60776 75.0455 5.63364 75.0342 5.66205C75.0229 5.69045 75.0174 5.72081 75.018 5.75136V18.2483C75.018 18.3093 75.0422 18.3678 75.0853 18.4111C75.1284 18.4543 75.1869 18.4788 75.2481 18.4792H77.5941C77.6555 18.4792 77.7144 18.4549 77.7578 18.4116C77.8012 18.3683 77.8256 18.3096 77.8256 18.2483V5.74716C77.8256 5.68593 77.8012 5.62721 77.7578 5.58392C77.7144 5.54063 77.6555 5.5163 77.5941 5.5163ZM90.6024 14.8274C90.6024 17.4199 88.342 18.8205 85.533 18.8205C83.0242 18.8205 81.1931 17.7334 80.3204 15.9789C80.2954 15.9265 80.2913 15.8667 80.3087 15.8114C80.3261 15.7561 80.3639 15.7095 80.4144 15.6808L82.4181 14.5196C82.4457 14.5035 82.4763 14.4934 82.508 14.4898C82.5398 14.4862 82.5719 14.4893 82.6024 14.4988C82.6329 14.5082 82.661 14.5239 82.6851 14.5449C82.7092 14.5658 82.7286 14.5915 82.7422 14.6203C83.208 15.6459 84.2014 16.2531 85.533 16.2531C86.7818 16.2531 87.7429 15.8333 87.7429 14.8022C87.7429 13.8481 86.5471 13.5101 85.1445 13.1137C83.1551 12.5514 80.7498 11.8715 80.7498 9.14972C80.7498 6.71384 82.8544 5.1846 85.5077 5.1846C87.5535 5.1846 89.2653 6.09123 90.204 7.67784C90.2191 7.70443 90.2288 7.73376 90.2324 7.76411C90.2361 7.79447 90.2337 7.82524 90.2253 7.85466C90.217 7.88408 90.2029 7.91155 90.1838 7.93548C90.1647 7.9594 90.141 7.97931 90.1142 7.99404L88.1596 9.08536C88.1339 9.10038 88.1054 9.11017 88.0758 9.11415C88.0462 9.11812 88.0162 9.11622 87.9873 9.10855C87.9585 9.10087 87.9315 9.08757 87.9078 9.06943C87.8842 9.05128 87.8643 9.02864 87.8495 9.00281C87.3584 8.12976 86.5011 7.72401 85.5077 7.72401C84.5143 7.72401 83.6093 8.16474 83.6093 9.09795C83.6093 10.0704 84.7978 10.3999 86.1949 10.7873C88.1867 11.3395 90.6024 12.0092 90.6024 14.8274ZM93.0618 0.794514C92.8646 1.08838 92.7592 1.43395 92.7589 1.78754C92.7593 2.26178 92.9483 2.71652 93.2845 3.05199C93.6206 3.38746 94.0765 3.57628 94.5521 3.57702C94.9067 3.57702 95.2533 3.47219 95.5482 3.27577C95.843 3.07936 96.0729 2.80018 96.2086 2.47353C96.3444 2.14688 96.38 1.78743 96.3109 1.44061C96.2418 1.0938 96.0712 0.77519 95.8206 0.525066C95.5699 0.274943 95.2505 0.104535 94.9028 0.0353833C94.555 -0.0337682 94.1945 0.00144333 93.8668 0.136565C93.5392 0.271686 93.259 0.500649 93.0618 0.794514ZM95.8888 5.58382C95.8454 5.54053 95.7865 5.51621 95.7251 5.51621H93.3791C93.3484 5.5162 93.318 5.52231 93.2897 5.53419C93.2614 5.54607 93.2358 5.56348 93.2144 5.58538C93.1929 5.60728 93.1761 5.63324 93.1649 5.66173C93.1536 5.69022 93.1482 5.72066 93.149 5.75126V18.2482C93.1488 18.2785 93.1546 18.3085 93.1661 18.3365C93.1776 18.3645 93.1945 18.3899 93.2159 18.4114C93.2373 18.4329 93.2627 18.4499 93.2907 18.4615C93.3187 18.4731 93.3488 18.4791 93.3791 18.4791H95.7251C95.7865 18.4791 95.8454 18.4548 95.8888 18.4115C95.9322 18.3682 95.9566 18.3095 95.9566 18.2482V5.74706C95.9566 5.68583 95.9322 5.62712 95.8888 5.58382ZM111.937 5.51617C111.998 5.51617 112.057 5.5405 112.101 5.58379C112.144 5.62708 112.168 5.6858 112.168 5.74703V17.8816C112.168 22.0566 108.892 24 105.487 24C102.72 24 100.562 23.0052 99.4351 21.0619C99.4053 21.0089 99.3977 20.9464 99.414 20.8879C99.4303 20.8295 99.4692 20.7798 99.5221 20.7498L101.538 19.583C101.564 19.5677 101.593 19.5577 101.623 19.5535C101.653 19.5494 101.684 19.5512 101.713 19.5589C101.742 19.5666 101.769 19.5799 101.793 19.5982C101.817 19.6166 101.838 19.6394 101.853 19.6655C102.438 20.6869 103.416 21.4662 105.539 21.4662C107.956 21.4662 109.413 20.144 109.413 17.8886V16.3076C108.43 17.7068 106.887 18.563 104.889 18.563C101.224 18.563 98.3379 15.5815 98.3379 11.8752C98.3379 8.16891 101.224 5.18738 104.889 5.18738C106.891 5.18738 108.425 6.04224 109.413 7.44277V5.75122C109.413 5.69 109.437 5.63128 109.48 5.58799C109.524 5.54469 109.583 5.52037 109.644 5.52037L111.937 5.51617ZM109.411 11.8682C109.411 9.53446 107.643 7.79815 105.278 7.79815C102.912 7.79815 101.144 9.53446 101.144 11.8682C101.144 14.2019 102.912 15.9383 105.278 15.9383C107.643 15.9383 109.413 14.2061 109.413 11.8724L109.411 11.8682ZM127.043 18.2482V10.5237C127.043 7.15457 124.963 5.18461 122.048 5.1916C120.278 5.1916 118.875 5.8394 118.018 7.18676V0.2373C118.018 0.199413 118.008 0.162137 117.99 0.12876C117.972 0.0953828 117.947 0.0669292 117.915 0.0459131C117.883 0.0248971 117.847 0.0119629 117.809 0.00825143C117.771 0.00454 117.733 0.0101663 117.698 0.0246325L115.495 0.927068C115.413 0.962201 115.342 1.02063 115.292 1.09519C115.242 1.16975 115.215 1.2572 115.215 1.34681V18.2468C115.214 18.2771 115.22 18.3071 115.232 18.3351C115.243 18.3631 115.26 18.3885 115.282 18.41C115.303 18.4315 115.328 18.4485 115.356 18.4601C115.384 18.4717 115.414 18.4777 115.445 18.4777H117.791C117.852 18.4777 117.911 18.4534 117.954 18.4101C117.998 18.3668 118.022 18.3081 118.022 18.2468V11.531C118.022 8.88669 119.477 7.79817 121.324 7.79817C123.092 7.79817 124.235 8.83492 124.235 10.8049V18.2482C124.235 18.2785 124.241 18.3085 124.252 18.3365C124.264 18.3645 124.281 18.3899 124.302 18.4114C124.324 18.4329 124.349 18.4499 124.377 18.4615C124.405 18.4731 124.435 18.4791 124.465 18.4791H126.811C126.873 18.4791 126.932 18.4548 126.975 18.4115C127.018 18.3682 127.043 18.3095 127.043 18.2482ZM133.949 8.21649V14.4384C133.949 16.0334 134.958 16.0712 136.929 15.9774C136.96 15.9759 136.992 15.9807 137.021 15.9916C137.05 16.0024 137.077 16.019 137.1 16.0405C137.122 16.0619 137.14 16.0877 137.153 16.1163C137.165 16.1449 137.172 16.1757 137.172 16.2069V18.2762C137.172 18.3332 137.151 18.3883 137.113 18.4308C137.075 18.4734 137.022 18.5005 136.966 18.5071C132.801 18.9618 131.14 17.7543 131.14 14.4384V8.21649H128.98C128.95 8.21667 128.92 8.21087 128.892 8.19942C128.864 8.18798 128.838 8.1711 128.817 8.14978C128.795 8.12845 128.778 8.1031 128.767 8.07516C128.755 8.04723 128.749 8.01728 128.749 7.98703V5.74843C128.749 5.6872 128.773 5.62848 128.817 5.58519C128.86 5.5419 128.919 5.51757 128.98 5.51757H131.14V3.13766C131.141 3.04806 131.168 2.96061 131.217 2.88605C131.267 2.81149 131.338 2.75306 131.421 2.71793L133.623 1.81409C133.659 1.79962 133.697 1.794 133.734 1.79771C133.772 1.80142 133.809 1.81436 133.84 1.83537C133.872 1.85639 133.898 1.88484 133.916 1.91822C133.934 1.95159 133.943 1.98887 133.943 2.02676V5.52457H136.935C136.996 5.52457 137.055 5.54889 137.098 5.59219C137.142 5.63548 137.166 5.6942 137.166 5.75543V7.99403C137.166 8.02428 137.16 8.05423 137.149 8.08216C137.137 8.11009 137.12 8.13545 137.098 8.15677C137.077 8.1781 137.051 8.19497 137.023 8.20642C136.995 8.21787 136.965 8.22367 136.935 8.22348L133.949 8.21649ZM143.929 18.8205C146.737 18.8205 148.999 17.4199 148.999 14.8274C148.999 12.0092 146.583 11.3395 144.59 10.7873C143.193 10.3999 142.004 10.0704 142.004 9.09795C142.004 8.16474 142.888 7.72401 143.903 7.72401C144.896 7.72401 145.753 8.12976 146.245 9.00281C146.275 9.05469 146.324 9.09251 146.382 9.10798C146.441 9.12346 146.503 9.11532 146.555 9.08536L148.509 7.99404C148.536 7.97931 148.56 7.9594 148.579 7.93548C148.598 7.91155 148.612 7.88408 148.62 7.85466C148.629 7.82524 148.631 7.79447 148.627 7.76411C148.624 7.73376 148.614 7.70443 148.599 7.67784C147.66 6.09123 145.948 5.1846 143.903 5.1846C141.249 5.1846 139.145 6.71384 139.145 9.14972C139.145 11.8715 141.55 12.5514 143.539 13.1137C144.942 13.5101 146.138 13.8481 146.138 14.8022C146.138 15.8333 145.177 16.2531 143.929 16.2531C142.598 16.2531 141.604 15.6459 141.137 14.6203C141.124 14.5915 141.104 14.5659 141.081 14.5449C141.057 14.524 141.029 14.5083 140.998 14.4988C140.968 14.4894 140.936 14.4863 140.904 14.4899C140.873 14.4934 140.842 14.5036 140.814 14.5196L138.809 15.6808C138.759 15.7095 138.721 15.7561 138.704 15.8114C138.686 15.8667 138.69 15.9265 138.715 15.9789C139.588 17.7334 141.419 18.8205 143.929 18.8205Z" fill="#1A1A1A"/>
<path d="M12.5198 9.65835H21.8636C21.8829 9.65854 21.902 9.65454 21.9196 9.64662C21.9373 9.6387 21.953 9.62706 21.9657 9.61247C21.9784 9.59789 21.9879 9.58072 21.9934 9.56213C21.9989 9.54354 22.0004 9.52397 21.9977 9.50476C21.6711 7.0999 20.5695 4.8687 18.8613 3.15246C17.153 1.43621 14.9323 0.329404 12.5386 0.00132804C12.5195 -0.00138868 12.5 7.33575e-05 12.4815 0.00561628C12.463 0.0111592 12.4459 0.0206526 12.4314 0.0334446C12.4169 0.0462367 12.4053 0.0620265 12.3974 0.0797355C12.3895 0.0974445 12.3856 0.116655 12.3857 0.136052V9.52362C12.3857 9.55936 12.3999 9.59362 12.425 9.61889C12.4502 9.64415 12.4843 9.65835 12.5198 9.65835Z" fill="#9F3852"/>
<path d="M12.3857 12.4754V21.863C12.3856 21.8824 12.3895 21.9016 12.3974 21.9193C12.4053 21.937 12.4169 21.9528 12.4314 21.9656C12.4459 21.9784 12.463 21.9879 12.4815 21.9934C12.5 21.999 12.5195 22.0004 12.5386 21.9977C14.9323 21.6696 17.153 20.5628 18.8613 18.8466C20.5695 17.1303 21.6711 14.8992 21.9977 12.4943C22.0004 12.4751 21.9989 12.4555 21.9934 12.4369C21.9879 12.4183 21.9784 12.4012 21.9657 12.3866C21.953 12.372 21.9373 12.3603 21.9196 12.3524C21.902 12.3445 21.8829 12.3405 21.8636 12.3407H12.5198C12.4843 12.3407 12.4502 12.3549 12.425 12.3802C12.3999 12.4054 12.3857 12.4397 12.3857 12.4754Z" fill="#0A8577"/>
<path d="M9.71599 0.137241C9.71615 0.117974 9.7122 0.0988946 9.70439 0.0812927C9.69659 0.0636908 9.68512 0.0479747 9.67076 0.0352054C9.6564 0.0224361 9.63948 0.0129114 9.62114 0.00727217C9.6028 0.00163297 9.58348 1.17222e-05 9.56446 0.00251727C6.91562 0.362874 4.48667 1.67596 2.72794 3.69833C0.969209 5.7207 0 8.31516 0 11.0007C0 13.6863 0.969209 16.2807 2.72794 18.3031C4.48667 20.3255 6.91562 21.6386 9.56446 21.9989C9.58348 22.0014 9.6028 21.9998 9.62114 21.9942C9.63948 21.9885 9.6564 21.979 9.67076 21.9662C9.68512 21.9535 9.69659 21.9377 9.70439 21.9201C9.7122 21.9025 9.71615 21.8835 9.71599 21.8642V0.137241Z" fill="#FBBE37"/>
</svg>
